PathFileType	4	(X/Y/Z)	./resultDataOpenSim/trcMotMarkerGrf/sub10/qtm-05-05.trc
DataRate	CameraRate	NumFrames	NumMarkers	Units	OrigDataRate	OrigDataStartFrame	OrigNumFrames
250.000000	250.000000	15	24	m	250.000000	453	517
Frame#	Time	L.Toe.Tip			R.Toe.Tip			L.Ankle.Lat			R.Ankle.Lat			L.Ankle.Med			R.Ankle.Med			L.Heel			R.Heel			L.Knee.Lat			R.Knee.Lat			L.Knee.Med			R.Knee.Med			L.Thigh.Upper			R.Thigh.Upper			L.ASIS			R.ASIS			V.Sacral			L.Acromium			R.Acromium			C7			L.Elbow			R.Elbow			L.Wrist.Lat			R.Wrist.Lat
		X1	Y1	Z1	X2	Y2	Z2	X3	Y3	Z3	X4	Y4	Z4	X5	Y5	Z5	X6	Y6	Z6	X7	Y7	Z7	X8	Y8	Z8	X9	Y9	Z9	X10	Y10	Z10	X11	Y11	Z11	X12	Y12	Z12	X13	Y13	Z13	X14	Y14	Z14	X15	Y15	Z15	X16	Y16	Z16	X17	Y17	Z17	X18	Y18	Z18	X19	Y19	Z19	X20	Y20	Z20	X21	Y21	Z21	X22	Y22	Z22	X23	Y23	Z23	X24	Y24	Z24

453	1.808	1.5478885	0.13144914	-0.15696759	0.89240183	0.037730562	0.05133759	1.4196666	0.098208429	-0.19198514	0.75956678	0.077183564	0.098364615	1.4184603	0.12005865	-0.11173501	0.78048565	0.098669326	0.012222923	1.3755193	0.042439515	-0.15221749	0.701438	0.06479398	0.055483842	1.2632188	0.45861484	-0.19578307	0.95152532	0.4353985	0.11725077	1.2821775	0.427302	-0.078031188	0.96408502	0.43314678	-0.0112189	1.1187177	0.81872231	-0.22484609	1.0407786	0.83817313	0.15859783	1.1599302	0.92930971	-0.14837629	1.1303607	0.92520788	0.099728124	0.94644272	0.92527634	-0.054704976	1.0867801	1.4023431	-0.17066792	1.1077472	1.3926213	0.14388171	1.0130997	1.4198514	-0.0081177811	0.8654734	1.127015	-0.23835645	1.162201	1.0572945	0.26579523	0.96751976	0.89619329	-0.33959067	1.4075724	1.0213867	0.30213804
454	1.812	1.5575	0.13280606	-0.15686937	0.8925157	0.037761649	0.051328927	1.4294786	0.098641775	-0.19173509	0.7601751	0.07821928	0.098441435	1.42837	0.12080806	-0.11176449	0.78112551	0.099441868	0.012283148	1.3857954	0.042456341	-0.15199649	0.70183878	0.066261099	0.055594983	1.2700214	0.45816946	-0.19589416	0.95508261	0.43464921	0.11681101	1.2870136	0.42658994	-0.078134698	0.96801522	0.43227296	-0.011526041	1.1253574	0.81738592	-0.22517892	1.0454604	0.83705472	0.1579901	1.1661148	0.92805749	-0.14844251	1.1354427	0.92388327	0.099657252	0.95212033	0.92415468	-0.055903598	1.0917972	1.4009758	-0.17142968	1.1126613	1.3914159	0.14319572	1.0179222	1.4185075	-0.0089307459	0.86981553	1.1259254	-0.2385465	1.1688022	1.0558554	0.26356592	0.97099675	0.89483917	-0.34022941	1.4143908	1.0208358	0.29854174
455	1.816	1.5666217	0.1335886	-0.15707786	0.89263321	0.037782525	0.051336439	1.438626	0.098832806	-0.19148034	0.76074003	0.079312282	0.098514256	1.4375883	0.12111889	-0.11175562	0.78180802	0.10028491	0.012362851	1.3953269	0.042324273	-0.15171351	0.70228349	0.067802043	0.055696969	1.2769139	0.45773521	-0.1959796	0.95866	0.43391796	0.11638153	1.291608	0.42592638	-0.078265364	0.97203599	0.43141711	-0.011832795	1.1321095	0.81603975	-0.2255111	1.0501992	0.8359605	0.15737297	1.1722806	0.92679108	-0.14846521	1.1406038	0.92255661	0.09957387	0.95774043	0.92305962	-0.057148198	1.0968395	1.3996435	-0.17221712	1.1175661	1.3902506	0.14250613	1.0227811	1.4171813	-0.0097753637	0.87548168	1.1245935	-0.23928726	1.1753008	1.0544155	0.26125562	0.97454666	0.8934869	-0.34083748	1.4211048	1.0202442	0.29491949
456	1.82	1.5751303	0.13390553	-0.15732605	0.89275622	0.037795246	0.051358733	1.4470957	0.098762975	-0.19121075	0.76130417	0.080465845	0.098589971	1.4459373	0.12106274	-0.11168295	0.78253709	0.10117967	0.012442518	1.4040974	0.042031477	-0.15139829	0.7027747	0.069420446	0.0558059	1.2839194	0.45731723	-0.19601878	0.96225061	0.43322271	0.11598749	1.2966378	0.42532172	-0.078385892	0.97614744	0.43058815	-0.012121001	1.1389612	0.81469055	-0.22584276	1.0549915	0.83488897	0.15674263	1.178438	0.92550419	-0.14845318	1.1458219	0.92123102	0.099479636	0.96338708	0.92200257	-0.058439059	1.1018999	1.3983495	-0.17303034	1.1224787	1.3891268	0.14179781	1.0276757	1.4158706	-0.01065201	0.88058303	1.1233924	-0.2397334	1.181698	1.0529921	0.25888349	0.97817151	0.89214167	-0.34140867	1.4277132	1.019613	0.29126509
457	1.824	1.5829436	0.13384549	-0.15737897	0.89288611	0.037805164	0.05138942	1.4548965	0.09843112	-0.1909184	0.76193632	0.081680803	0.098672859	1.4535932	0.12079004	-0.11152378	0.78331621	0.10211169	0.012514037	1.4121059	0.041576125	-0.15105614	0.70331557	0.071128277	0.055940992	1.2910613	0.45692817	-0.1960074	0.96585986	0.4325746	0.11562214	1.3024833	0.42479806	-0.078473616	0.98035612	0.42978327	-0.012380939	1.1458894	0.81335048	-0.22617668	1.0598362	0.83384018	0.15609183	1.1846059	0.92419148	-0.14842138	1.1510943	0.91990916	0.099380602	0.96907002	0.92103456	-0.059779666	1.1069751	1.3970968	-0.17387089	1.1274143	1.3880418	0.14106031	1.0326007	1.4145776	-0.011559268	0.88521027	1.1223305	-0.23989836	1.1880077	1.051607	0.25648089	0.98188518	0.89080492	-0.34195122	1.4342112	1.0189433	0.28757265
458	1.828	1.5900904	0.13348669	-0.15709083	0.8930257	0.03781657	0.051423702	1.4620582	0.097846634	-0.19060635	0.76270234	0.082936208	0.098754843	1.4607925	0.12039367	-0.1112708	0.78414749	0.1030811	0.01258539	1.4193688	0.040962755	-0.15068306	0.70390931	0.072930899	0.056110809	1.298352	0.4565861	-0.19595321	0.96950929	0.4319682	0.11526066	1.3090032	0.42437146	-0.07853376	0.98467233	0.42898752	-0.012607028	1.1528692	0.81204067	-0.22652166	1.0647496	0.83281314	0.15541404	1.1908002	0.92285342	-0.14838734	1.156422	0.91859466	0.09927499	0.9747708	0.92018749	-0.061140553	1.11208	1.3958831	-0.17473565	1.1323771	1.3869904	0.14029467	1.037557	1.4133063	-0.012494696	0.89208169	1.1209133	-0.24095894	1.1942511	1.050276	0.25406489	0.98570122	0.88947617	-0.34247807	1.4405931	1.0182345	0.28384253
459	1.832	1.5966441	0.13293409	-0.15639744	0.89318077	0.037832467	0.051459959	1.4686219	0.097024531	-0.19028953	0.76362067	0.084209662	0.098835728	1.4676557	0.11988629	-0.11093289	0.7850329	0.10409887	0.012671355	1.4259179	0.040197552	-0.15029382	0.70456143	0.074825063	0.05631609	1.3057851	0.45630523	-0.19586858	0.97323071	0.43139286	0.11488117	1.3159265	0.42405142	-0.078570832	0.98909229	0.42817971	-0.012817949	1.1598798	0.81079194	-0.22688967	1.0697742	0.83180558	0.15471012	1.1970319	0.92149564	-0.14836688	1.1618057	0.91728605	0.099146183	0.9805682	0.9194519	-0.062332543	1.1172338	1.3947055	-0.1756189	1.1373673	1.3859717	0.1395046	1.042557	1.4120608	-0.013458708	0.902267	1.118931	-0.24340307	1.200446	1.0489911	0.25158184	0.98962159	0.88815662	-0.34299279	1.4468525	1.0174853	0.28008629
460	1.836	1.6026647	0.13219646	-0.15546623	0.89335537	0.037853266	0.051498594	1.4746281	0.095984327	-0.18998292	0.7645999	0.085532589	0.09895474	1.4742027	0.11918763	-0.11051888	0.78597797	0.10518212	0.01278985	1.4317935	0.039282361	-0.14992494	0.70528007	0.076810895	0.056557046	1.3133352	0.45607883	-0.19576807	0.97703859	0.43083945	0.11447163	1.3231873	0.4238467	-0.078572986	0.9935974	0.4273431	-0.01305961	1.1669009	0.80964145	-0.22728767	1.0749547	0.83081445	0.15398664	1.2033081	0.92012921	-0.14837241	1.1672494	0.91597938	0.098984734	0.9867092	0.91880444	-0.062993678	1.1224334	1.3935649	-0.17651942	1.1423868	1.3849933	0.13869071	1.0476103	1.4108445	-0.014448145	0.91329621	1.1168027	-0.2461952	1.206627	1.047724	0.24889274	0.9936375	0.8868466	-0.34348699	1.45298	1.0166941	0.27631975
461	1.84	1.6081956	0.13108837	-0.15466475	0.89354885	0.037876439	0.051539703	1.4801098	0.094746849	-0.18968735	0.76548071	0.086991528	0.099170902	1.4803986	0.11815613	-0.11003197	0.7869934	0.10634237	0.012951092	1.4370412	0.038218495	-0.14961185	0.70607417	0.078894661	0.056826919	1.3209666	0.45587917	-0.19566563	0.9809188	0.43029605	0.11403373	1.3309794	0.42376328	-0.07851847	0.9981711	0.42647026	-0.013362081	1.1739056	0.80862593	-0.22771138	1.0802784	0.82983291	0.15324571	1.2096341	0.91877034	-0.14841139	1.1727678	0.91467593	0.098805049	0.99341837	0.91822876	-0.062883718	1.1276572	1.3924648	-0.17744236	1.1474387	1.3840641	0.13785487	1.0527107	1.4096616	-0.01545279	0.92234714	1.1150128	-0.24812794	1.2128468	1.0464566	0.24587648	0.99774242	0.88554125	-0.34395046	1.4589714	1.0158574	0.27254987
462	1.844	1.6132667	0.1293945	-0.15421633	0.8937584	0.037897825	0.051580688	1.4850916	0.093329411	-0.18939055	0.76622481	0.088631904	0.099485402	1.4861679	0.11671003	-0.10949204	0.78809171	0.10757468	0.013141662	1.4417107	0.03701596	-0.14937212	0.70695466	0.081081417	0.057103189	1.3286492	0.45568251	-0.19556821	0.98485405	0.42975244	0.11358045	1.3395457	0.42379268	-0.078390154	1.002808	0.42556194	-0.013715873	1.1808608	0.80777346	-0.22814922	1.0856644	0.82884854	0.15248234	1.2160162	0.91743574	-0.14848444	1.1783737	0.91337834	0.098616675	1.0005755	0.91769788	-0.062268913	1.1328917	1.3914071	-0.17839435	1.1525287	1.3831865	0.1370007	1.0578484	1.4085186	-0.016466135	0.92896009	1.1136359	-0.24898694	1.219081	1.0451892	0.24258894	1.0019385	0.88423475	-0.34438306	1.4648364	1.0149705	0.26876773
463	1.848	1.6178957	0.12709138	-0.15405236	0.89398245	0.037912225	0.051616493	1.489597	0.091746901	-0.18908215	0.76700901	0.090390042	0.099813743	1.4914168	0.11489067	-0.10894503	0.78928379	0.10886744	0.013333169	1.4458421	0.035691627	-0.14919983	0.70793535	0.083372917	0.057355182	1.3363679	0.45548287	-0.19547871	0.98885678	0.42921153	0.11311678	1.3487733	0.42390413	-0.078196865	1.0075119	0.42462866	-0.01409836	1.1877394	0.80709664	-0.22859383	1.0910435	0.82785275	0.15168972	1.2224595	0.91614064	-0.14858688	1.1840651	0.91208681	0.098396666	1.007711	0.91716476	-0.061856474	1.1381414	1.3903889	-0.17937868	1.1576642	1.3823614	0.13612925	1.0630228	1.407419	-0.017494168	0.93427245	1.1124762	-0.24924479	1.2251765	1.043922	0.23926242	1.0062303	0.88292851	-0.34479635	1.4705922	1.0140318	0.26495436
464	1.852	1.6220955	0.12431893	-0.15397633	0.89422104	0.037914589	0.051639873	1.4936554	0.090017223	-0.1887618	0.76806306	0.092160083	0.10007262	1.4960776	0.1128043	-0.10843563	0.79057775	0.11021695	0.013506225	1.4494621	0.034258461	-0.1490611	0.70902547	0.085772047	0.057562798	1.3441164	0.45528048	-0.19540353	0.99297238	0.42868691	0.11263067	1.358091	0.42405272	-0.077973187	1.0122929	0.42369167	-0.014499746	1.1945293	0.80658936	-0.2290483	1.0964179	0.82685183	0.15086331	1.22896	0.91490155	-0.14871401	1.1898359	0.91080489	0.098113587	1.0144	0.91659109	-0.062204491	1.1434183	1.3894035	-0.18039436	1.1628505	1.3815932	0.13523718	1.0682416	1.4063605	-0.018548706	0.93937824	1.1113546	-0.24937491	1.2309866	1.0426546	0.23608393	1.0106247	0.88163005	-0.34520468	1.4762453	1.013045	0.26109591
465	1.856	1.6259071	0.12121604	-0.15384545	0.89447505	0.037904574	0.051640235	1.4973124	0.088160153	-0.18844113	0.76948902	0.093902152	0.10026426	1.5001487	0.11055797	-0.107978	0.79197798	0.11162741	0.013657628	1.4526059	0.032719856	-0.14890456	0.71022215	0.088284177	0.057725186	1.3518806	0.45507088	-0.1953476	0.9972473	0.42818779	0.11211584	1.3669552	0.42419795	-0.077742192	1.0171654	0.42277507	-0.014920994	1.2012343	0.80622789	-0.22952207	1.1018319	0.82586128	0.15000339	1.2355061	0.91373571	-0.14886562	1.1956884	0.90954018	0.097757255	1.0205993	0.91597488	-0.063276686	1.1487305	1.3884466	-0.18143761	1.1680917	1.3808884	0.13431617	1.0735131	1.405339	-0.01963508	0.94475763	1.1102025	-0.24959801	1.2365043	1.0413893	0.23304249	1.0151316	0.8803428	-0.34561531	1.4817875	1.0120172	0.2571935
466	1.86	1.6294518	0.11787693	-0.15371424	0.89475014	0.03789111	0.051608988	1.5006381	0.086189204	-0.18815546	0.77125176	0.095670053	0.10044274	1.5037087	0.10824545	-0.10755494	0.79348723	0.11310458	0.013791977	1.4553283	0.031075185	-0.14869131	0.71151719	0.090912387	0.05785016	1.3596304	0.45484568	-0.19530772	1.0017003	0.42771259	0.11158659	1.375274	0.42431755	-0.077507504	1.0221429	0.4218927	-0.015352554	1.2078725	0.80597546	-0.23002281	1.1073216	0.82488965	0.14911435	1.2420894	0.91265727	-0.14905019	1.2016289	0.90829907	0.09733464	1.0265948	0.91534003	-0.064630347	1.1540794	1.3875165	-0.18250414	1.173392	1.3802516	0.13335572	1.0788408	1.4043534	-0.020748854	0.95044071	1.1090235	-0.24993545	1.2418163	1.0401199	0.23002519	1.0197561	0.87906251	-0.34602699	1.4872081	1.0109537	0.25325818
467	1.864	1.6328985	0.11438778	-0.15379496	0.89505651	0.037886774	0.051551397	1.5037117	0.084105814	-0.18795342	0.77323677	0.097554307	0.10062421	1.5068694	0.10593519	-0.10714003	0.79511221	0.11465051	0.013911768	1.4576781	0.029333258	-0.14842096	0.71291108	0.093653107	0.057936062	1.3673317	0.45459663	-0.1952818	1.0063213	0.42725465	0.11105636	1.3832579	0.42441306	-0.077305434	1.0272334	0.42104123	-0.015756642	1.2144691	0.80578998	-0.23055291	1.1128983	0.82393603	0.14819927	1.2487178	0.91167577	-0.14928694	1.207664	0.90708844	0.096857194	1.0327077	0.91470885	-0.065896402	1.1594618	1.3866098	-0.18359275	1.1787498	1.3796814	0.13234815	1.0842208	1.4034006	-0.021881134	0.95631501	1.1078376	-0.25033899	1.2469942	1.0388335	0.22695872	1.0244959	0.87778633	-0.34643696	1.4925038	1.0098544	0.24930306
